HIERARCHY
ROOT Hips
{
  OFFSET -102.467 93.6631 130.069
  CHANNELS 6 Xposition Yposition Zposition Zrotation Xrotation Yrotation
  JOINT LeftUpLeg
  {
    OFFSET 8.64259 1.95398 -2.38835
    CHANNELS 3 Zrotation Xrotation Yrotation
    JOINT LeftLeg
    {
      OFFSET 43.7702 0 0
      CHANNELS 3 Zrotation Xrotation Yrotation
      JOINT LeftFoot
      {
        OFFSET 40.6238 0 0
        CHANNELS 3 Zrotation Xrotation Yrotation
        JOINT LeftToeBase
        {
          OFFSET 12.7242 0 0
          CHANNELS 3 Zrotation Xrotation Yrotation
          End Site
          {
            OFFSET 0 0 0
          }
        }
      }
    }
  }
  JOINT RightUpLeg
  {
    OFFSET -8.2249 1.95398 -2.59336
    CHANNELS 3 Zrotation Xrotation Yrotation
    JOINT RightLeg
    {
      OFFSET 43.5653 0 0
      CHANNELS 3 Zrotation Xrotation Yrotation
      JOINT RightFoot
      {
        OFFSET 40.6238 0 0
        CHANNELS 3 Zrotation Xrotation Yrotation
        JOINT RightToeBase
        {
          OFFSET 12.7242 0 0
          CHANNELS 3 Zrotation Xrotation Yrotation
          End Site
          {
            OFFSET 0 0 0
          }
        }
      }
    }
  }
  JOINT Spine
  {
    OFFSET 0.165834 0.87714 6.61349
    CHANNELS 3 Zrotation Xrotation Yrotation
    JOINT Spine1
    {
      OFFSET 7.38963 1.71661e-005 0
      CHANNELS 3 Zrotation Xrotation Yrotation
      JOINT Spine2
      {
        OFFSET 11.9445 1.14441e-005 0
        CHANNELS 3 Zrotation Xrotation Yrotation
        JOINT Spine3
        {
          OFFSET 14.7254 4.19617e-005 0
          CHANNELS 3 Zrotation Xrotation Yrotation
          JOINT Spine4
          {
            OFFSET 10.9679 0 0
            CHANNELS 3 Zrotation Xrotation Yrotation
            JOINT RightShoulder
            {
              OFFSET 2.46616 -1.6653 3.69651
              CHANNELS 3 Zrotation Xrotation Yrotation
              JOINT RightArm
              {
                OFFSET 13.0012 0 0
                CHANNELS 3 Zrotation Xrotation Yrotation
                JOINT RightForeArm
                {
                  OFFSET 28.7848 1.52588e-005 0
                  CHANNELS 3 Zrotation Xrotation Yrotation
                  JOINT RightHand
                  {
                    OFFSET 26.5688 1.52588e-005 0
                    CHANNELS 3 Zrotation Xrotation Yrotation
                    End Site
                    {
                      OFFSET 0 0 0
                    }
                  }
                }
              }
            }
            JOINT LeftShoulder
            {
              OFFSET 2.38034 -1.29275 -3.7523
              CHANNELS 3 Zrotation Xrotation Yrotation
              JOINT LeftArm
              {
                OFFSET 16.3182 6.10351e-005 0
                CHANNELS 3 Zrotation Xrotation Yrotation
                JOINT LeftForeArm
                {
                  OFFSET 27.0901 0 0
                  CHANNELS 3 Zrotation Xrotation Yrotation
                  JOINT LeftHand
                  {
                    OFFSET 24.5451 1.52588e-005 0
                    CHANNELS 3 Zrotation Xrotation Yrotation
                    End Site
                    {
                      OFFSET 0 0 0
                    }
                  }
                }
              }
            }
            JOINT Neck
            {
              OFFSET 5.0226 -0.0266342 0
              CHANNELS 3 Zrotation Xrotation Yrotation
              JOINT Head
              {
                OFFSET 6.69363 2.86102e-005 0
                CHANNELS 3 Zrotation Xrotation Yrotation
                End Site
                {
                  OFFSET 0 0 0
                }
              }
            }
          }
        }
      }
    }
  }
}
MOTION
Frames:	16
Frame Time:	0.0416667
-129.096 98.2591 -21.4545 98.4266 -85.0873 87.9699 -174.554 10.9318 97.872 -9.84697 21.3086 4.45171 45.0292 -7.57079 -5.71943 38.1539 0.156041 8.41388 171.312 13.0474 70.8525 -25.0734 -3.78178 -2.77677 61.5358 6.91485 14.8307 38.3851 -1.26258 4.13815 -0.0543864 7.54668 -90.5306 11.7778 -0.357406 -1.01984 0.106492 -0.401955 -1.00314 -22.4255 -0.0343992 -1.08011 -2.41282 -0.0344012 -1.08011 100.632 -49.1415 -84.5863 22.0047 -8.26798 -4.05412 -1.37466 -4.98122 -17.3111 -14.8892 -0.920751 2.03699 -84.8982 -55.8347 86.8546 -24.2738 4.39561 -15.2735 0.120922 26.8856 -2.54146 -4.09518 -0.0490394 -7.12866 11.677 3.50068 7.53162 -24.0474 1.9106 -1.69915 
-126.539 97.6394 -21.1638 96.5848 -84.831 85.6932 -174.405 11.1449 99.5364 -10.0775 21.3293 5.05814 43.0909 -8.3278 -6.54058 35.8238 0.337896 9.07977 171.076 14.3147 68.8321 -26.6209 -4.04539 -3.15032 61.0643 7.00297 15.2835 41.1499 -1.65082 4.79025 -0.0644354 7.5577 -90.4727 11.7562 -0.350123 -0.905389 0.0849492 -0.389627 -0.889107 -22.4477 -0.0618496 -0.968757 -2.43506 -0.0618391 -0.968756 100.606 -49.1946 -84.6253 21.2158 -7.91624 -4.0769 -1.3258 -4.84354 -16.7282 -14.0888 -0.844919 1.8238 -85.0394 -56.213 86.6978 -23.4338 3.80833 -15.2478 0.396015 26.2082 -2.73365 -4.2994 -0.0392536 -7.43804 12.1404 2.88711 3.0793 -23.2056 1.26984 4.73052 
-123.746 96.7323 -20.7836 95.3086 -85.4227 84.7197 -173.787 11.255 101.774 -10.6588 22.387 5.63113 42.3201 -8.69809 -7.04633 34.1472 0.386923 8.91683 170.848 15.9345 67.1303 -28.5447 -5.08892 -3.14765 60.6052 6.97098 15.9096 43.7549 -2.01484 5.32852 -0.0126286 7.56558 -90.4644 11.7409 -0.243171 -0.900225 0.0696319 -0.282554 -0.888655 -22.463 0.0386114 -0.931687 -2.45038 0.0386115 -0.931688 100.424 -48.6874 -84.9303 20.8456 -8.48223 -3.89772 -0.972412 -4.35837 -16.6417 -14.358 -0.891051 2.07333 -85.0105 -55.9295 86.7064 -23.3198 3.45711 -14.7859 0.762336 25.5046 -3.11085 -3.21603 -0.0707252 -6.67726 13.0904 3.28198 4.77424 -23.8477 1.5696 2.46559 
-120.667 95.4562 -20.3696 98.9921 -85.7928 89.2664 -173.347 12.0282 104.254 -12.8388 22.8866 6.48578 42.8557 -8.63795 -6.57685 33.8888 0.28929 8.01301 170.329 17.3221 65.6142 -30.7757 -6.96725 -2.83741 60.2347 6.53935 15.6891 48.1503 -2.96299 5.14612 -0.0400705 7.6677 -90.4459 11.5366 -0.288329 -0.85883 -0.134595 -0.325847 -0.845307 -22.6675 -0.0168994 -0.905774 -2.65483 -0.0169052 -0.90578 100.66 -48.9706 -84.5478 20.1501 -8.14446 -5.69895 -0.943854 -4.79831 -15.1323 -13.576 -0.74723 1.23429 -84.481 -55.6929 87.4308 -22.6488 3.11448 -14.8367 1.01356 25.2126 -3.45288 -2.85069 -0.0811051 -6.60626 14.8701 3.10607 2.27754 -24.7419 1.48369 5.1436 
-117.259 93.683 -19.9774 94.1363 -85.5207 85.8074 -173.205 13.5882 106.925 -14.3742 22.698 7.10462 41.6215 -9.15395 -6.56606 35.5691 0.349212 9.09317 170.305 19.5381 64.2694 -34.1019 -7.42648 -2.75502 59.3873 7.1783 16.9213 52.6241 -3.82083 5.32375 -0.0822773 7.6231 -90.4522 11.6254 -0.375539 -0.862163 -0.0457217 -0.413124 -0.844809 -22.5786 -0.0990777 -0.935164 -2.566 -0.0990709 -0.935164 100.881 -48.8905 -84.1992 20.219 -8.45936 -5.11623 -1.24858 -4.64025 -16.9487 -13.7454 -0.770033 1.35736 -84.3353 -55.5622 87.6241 -21.6247 2.94926 -14.3336 1.4963 26.1874 -4.5686 -3.43783 -0.0682569 -6.76481 14.9421 3.50091 3.09832 -24.8824 2.0513 2.89066 
-113.412 91.5995 -19.7123 102.086 -84.1717 94.9929 -174.745 14.4467 108.866 -17.7886 23.7245 8.14392 41.7458 -8.68752 -5.84768 38.4311 0.583455 11.3948 169.74 20.1322 62.423 -36.8408 -9.69936 -2.72806 58.4765 7.02665 15.7175 59.2685 -5.42793 4.91701 -0.194403 7.78137 -90.3905 11.3089 -0.568776 -0.721259 -0.36207 -0.599964 -0.695536 -22.8961 -0.325724 -0.858845 -2.8834 -0.325723 -0.858849 101.099 -49.4822 -83.8422 19.8851 -8.1387 -4.83403 -1.03361 -2.85982 -18.4687 -14.3367 -0.650689 0.0835208 -84.2789 -55.0675 87.6533 -20.5005 2.92368 -15.0029 2.11315 26.9142 -5.93672 -3.99246 -0.0577503 -6.69448 15.1398 2.47831 -0.427912 -23.72 1.37488 6.68166 
-108.952 89.2934 -19.4295 102.915 -82.3265 98.5567 -177.337 15.656 111.43 -22.2746 25.4336 9.20375 42.6416 -7.87596 -8.78432 52.7151 1.64177 15.4231 169.622 18.8901 61.9949 -37.6208 -9.73852 -3.07863 58.0175 7.62062 16.4531 63.0845 -7.24679 3.0508 -0.286111 7.81812 -90.3996 11.235 -0.755322 -0.72089 -0.435921 -0.786318 -0.686957 -22.9704 -0.503757 -0.914554 -2.95775 -0.503757 -0.914559 101.94 -50.6516 -82.517 19.4763 -7.9232 -4.22873 -0.732969 -1.67389 -19.1891 -14.6311 -0.673897 0.168857 -84.5918 -52.7197 86.9382 -21.3144 3.2169 -14.8123 3.23421 28.2613 -7.63818 -3.10719 -0.0747773 -6.72829 14.7474 1.60163 -3.11264 -23.5674 1.13636 7.30342 
-103.698 87.4205 -19.0489 99.8159 -79.9204 98.0331 179.291 18.0892 111.529 -30.276 21.0627 11.1507 50.5429 -4.65779 -10.1236 64.5098 2.06779 16.2792 169.259 15.3502 61.3427 -33.9823 -10.1253 -3.8472 55.206 9.42537 18.8551 65.2132 -9.2896 0.229395 -0.474753 7.79545 -90.3761 11.2798 -1.11988 -0.637716 -0.390818 -1.14687 -0.587812 -22.9273 -0.876457 -0.944813 -2.91466 -0.876461 -0.944813 103.091 -52.0699 -80.7603 19.1564 -5.76448 -2.65812 -1.01099 -0.655081 -21.0917 -14.9198 -0.783444 0.928313 -84.9033 -50.428 86.2052 -22.9792 3.79831 -14.5114 4.92402 30.5148 -9.89593 -2.54607 -0.0880845 -6.4236 13.7885 0.434631 -6.53349 -23.2677 0.680866 8.53114 
-97.6122 86.8193 -18.8834 95.9793 -77.1342 95.7469 178.503 22.3714 109.181 -39.373 20.7965 10.8116 59.7004 1.5543 -0.0215937 65.7324 0.643379 12.6236 166.231 10.3884 59.0821 -23.644 -7.94833 -3.35359 47.5152 12.4366 24.6147 60.3089 -8.76337 -1.55744 -0.647922 7.82206 -90.3005 11.2273 -1.42925 -0.457353 -0.442959 -1.44798 -0.393995 -22.9824 -1.22571 -0.865803 -2.96975 -1.22571 -0.865802 104.602 -53.2614 -78.5168 19.502 -1.63331 -1.29159 -2.0709 -1.03201 -22.5063 -14.9692 -0.766404 0.77472 -86.5259 -49.0927 83.5547 -23.7294 5.36038 -15.9575 3.66202 29.7387 -8.85437 -0.880534 -0.109329 -5.81299 13.3572 -1.18024 -10.3351 -22.7595 -0.233336 10.5127 
-91.6863 88.0977 -18.9117 90.5151 -74.9099 92.2296 178.258 25.8956 108.061 -44.6207 24.5443 9.80628 62.5872 4.05264 3.0529 63.6176 0.156899 11.3209 164.272 4.57016 59.1346 -10.7608 -4.91005 -3.6259 38.987 14.3203 26.9396 36.9533 -3.46435 -5.76308 -0.678231 7.81911 -90.3684 11.232 -1.52123 -0.58358 -0.438184 -1.54543 -0.516055 -22.9776 -1.27551 -1.01383 -2.96498 -1.27551 -1.01384 105.052 -53.3454 -77.8476 20.8301 1.60366 0.0598936 -2.86561 -1.78194 -22.073 -14.9757 -0.79044 0.964592 -87.104 -49.6682 82.7694 -22.7188 7.24343 -19.7001 1.42124 32.1443 -6.47286 -0.396047 -0.134963 -6.97461 12.4419 -1.74149 -9.39778 -21.5794 -0.716987 8.73983 
-87.0483 90.1748 -19.2283 86.3455 -75.6236 89.4244 179.689 26.7583 106.712 -44.4754 25.2502 8.13082 61.7063 4.1555 4.52494 61.2105 -0.563498 9.2369 167.478 7.01608 62.0087 -15.5581 -5.831 -4.54469 45.49 13.2776 23.7177 26.9926 0.115157 -2.35341 -0.370694 7.83994 -90.2796 11.1927 -0.867678 -0.470727 -0.478026 -0.887552 -0.432085 -23.014 -0.686103 -0.70974 -3.00136 -0.686099 -0.70974 104.355 -53.3427 -78.8906 22.9258 1.23545 0.378335 -3.15134 -3.66856 -18.1969 -13.6784 -0.740829 1.12993 -86.9766 -49.7045 82.9681 -20.7832 8.79787 -22.1024 1.62885 32.6937 -8.39722 -1.18435 -0.113817 -6.45335 10.6369 -1.89031 -7.73871 -19.7859 -0.8345 5.63513 
-83.1696 92.2683 -19.5778 84.9297 -76.6082 89.4179 179.832 24.8216 105.094 -42.0015 24.846 8.06357 60.1118 3.83665 6.59648 60.4141 -0.618869 8.99957 168.758 9.6844 66.207 -21.298 -1.95533 -3.0245 52.8549 11.8265 25.0126 28.1909 0.0974231 -0.197205 -0.171958 7.95322 -90.2077 10.9665 -0.438456 -0.371469 -0.704389 -0.454372 -0.351816 -23.2395 -0.306543 -0.486063 -3.22681 -0.306543 -0.486068 103.83 -53.3578 -79.6771 24.0039 -1.62555 -1.57498 -2.72444 -6.4132 -13.6427 -11.9215 -0.625067 0.943623 -87.0282 -49.8164 82.9087 -18.9613 8.87238 -21.7262 3.71851 29.9666 -12.7288 -1.96416 -0.0983116 -6.86905 9.82239 -1.64259 -5.77549 -19.4353 -0.680919 2.75418 
-79.9824 94.0461 -19.9616 84.8274 -76.5415 90.4406 -179.443 22.5298 103.478 -38.0805 23.6769 7.8496 60.4383 4.36923 8.05985 56.056 -0.932073 7.42408 169.495 11.6017 71.6219 -27.702 1.20473 -1.37902 56.4512 10.2345 22.9899 32.9848 -0.309916 3.43172 -0.176104 8.02303 -90.1902 10.8271 -0.438472 -0.337438 -0.843828 -0.452892 -0.317815 -23.379 -0.316789 -0.453626 -3.36634 -0.316782 -0.453613 103.519 -53.01 -80.134 24.7973 -3.05373 -2.6787 -2.24455 -6.28173 -12.6096 -11.4508 -0.588603 0.823261 -87.382 -49.1944 82.2676 -18.9916 8.56805 -20.1218 4.07475 24.4867 -14.3503 3.20287 -0.236852 -7.37424 8.43628 -1.52226 -5.11137 -18.8956 -0.754125 2.66641 
-76.9506 95.0287 -20.3843 85.4471 -76.5917 91.1971 -178.817 19.8789 101.268 -34.4497 23.8667 7.77635 61.1318 5.24044 10.5028 53.2936 -1.16468 6.07495 168.176 14.6532 76.048 -35.421 3.99117 1.10944 58.1207 9.1483 21.9176 38.1961 -1.05045 4.83889 -0.282096 8.05057 -90.1363 10.7723 -0.62453 -0.213234 -0.898535 -0.633311 -0.185546 -23.4345 -0.531572 -0.391069 -3.42185 -0.531577 -0.391087 103.4 -52.5225 -80.3018 25.3486 -3.34491 -2.9218 -2.48847 -5.78016 -14.4478 -11.6688 -0.553384 0.342611 -87.032 -48.643 82.7079 -19.6359 8.05872 -18.4594 4.24237 21.4809 -15.2515 4.63783 -0.287744 -7.59726 7.05855 -1.62309 -6.61648 -17.209 -0.930541 5.7365 
-74.2353 95.7694 -20.8388 86.9299 -77.3624 91.6534 -177.841 18.0929 98.8607 -32.3285 24.0274 6.92152 61.3615 4.98489 10.9145 50.3201 -1.42347 4.35964 167.14 17.981 80.0928 -43.0254 5.03234 2.58806 59.9955 8.17504 21.6442 38.3245 -0.335867 7.81911 -0.348443 8.10951 -89.9919 10.6555 -0.69019 0.0792878 -1.01525 -0.686021 0.109591 -23.5519 -0.682106 -0.131811 -3.53922 -0.682107 -0.131818 102.852 -52.7629 -81.1337 25.3906 -3.22588 -2.70548 -2.7328 -4.41872 -17.9407 -12.59 -0.609863 0.457198 -86.9294 -48.7351 82.8803 -19.0803 7.69284 -17.98 3.73565 21.0229 -14.4845 3.53182 -0.258899 -7.62838 8.01814 -1.0636 -5.3388 -17.7864 -0.525899 4.95655 
-71.8375 96.3987 -21.1895 89.6023 -77.8037 93.6758 -177.212 16.2727 97.0485 -30.3084 24.0222 6.13745 61.4524 4.79877 11.0253 47.398 -1.34058 3.65856 166.63 19.608 84.8169 -47.2497 4.33363 3.7626 61.1877 8.17568 22.634 38.6511 0.298184 10.5597 -0.407632 8.16272 -89.9518 10.5492 -0.789713 0.166552 -1.12157 -0.781614 0.201148 -23.6586 -0.803253 -0.0784999 -3.646 -0.803258 -0.0785104 102.122 -52.3422 -82.2352 26.2773 -3.74104 -2.49061 -3.23338 -4.34021 -21.1099 -12.9438 -0.684195 0.989737 -87.1359 -49.152 82.6351 -18.7195 6.65965 -19.4965 1.52634 22.7228 -8.69176 2.89863 -0.2571 -8.00754 8.83358 -0.350779 -3.85479 -18.5117 -0.0314509 4.09325 
